<svg viewBox="0 0 24 24" fill="none" xmlns="http://www.w3.org/2000/svg">
<path d="M8.46446 5.63603C8.07394 5.24551 7.44077 5.24551 7.05025 5.63603L5.63603 7.05025C5.24551 7.44077 5.24551 8.07394 5.63603 8.46446L9.17157 12L5.63603 15.5355C5.24551 15.9261 5.24551 16.5592 5.63603 16.9497L7.05025 18.364C7.44077 18.7545 8.07394 18.7545 8.46446 18.364L12 14.8284L15.5355 18.364C15.9261 18.7545 16.5592 18.7545 16.9497 18.364L18.364 16.9497C18.7545 16.5592 18.7545 15.9261 18.364 15.5355L14.8284 12L18.364 8.46446C18.7545 8.07394 18.7545 7.44077 18.364 7.05025L16.9497 5.63603C16.5592 5.24551 15.9261 5.24551 15.5355 5.63603L12 9.17157L8.46446 5.63603Z" fill="currentColor"/>
</svg>
