<svg width="18" height="18" fill="none" xmlns="http://www.w3.org/2000/svg"><path style="fill:#000;fill-opacity:1;stroke:none;stroke-width:2.50917;stroke-linecap:round;stroke-linejoin:round;stroke-miterlimit:4;stroke-dasharray:none;stroke-opacity:1;paint-order:markers fill stroke" d="M8.969.004a8.83 8.828 0 0 0-6.285 2.824L1.076 1.2a.63.64 0 0 0-.508-.182.63.64 0 0 0-.178.045.63.64 0 0 0-.39.592v5.134a.63.64 0 0 0 .63.64h5.068a.63.64 0 0 0 .445-1.094l-1.53-1.548a6.066 6.066 0 0 1 6.09-1.807c2.566.689 4.397 2.96 4.556 5.649.159 2.688-1.39 5.163-3.856 6.159-2.446.99-5.225.288-6.934-1.74a.302.302 0 0 0-.018-.024l-.107-.125a.283.283 0 0 0-.405-.029l-1.618 1.449a.3.3 0 0 0-.029.416l.107.125c.01.011.02.023.03.032a8.87 8.87 0 0 0 2.018 1.75 8.765 8.765 0 0 0 7.965.721c3.549-1.434 5.801-5.03 5.572-8.9-.229-3.872-2.887-7.17-6.58-8.164A8.714 8.713 0 0 0 8.968.002ZM8.145 4.54c-.165 0-.297.158-.297.354v5.668l2.986 1.75.31.184.09.053c.118.068.279.006.36-.14l.856-1.505c.083-.144.056-.317-.061-.386l-.09-.05-.29-.171-1.852-1.085V4.895c0-.196-.135-.354-.3-.354z"/></svg>
