<svg width="17" height="18" viewBox="0 0 17 18" fill="none" xmlns="http://www.w3.org/2000/svg">
<path d="M16.7344 8.98446C16.7427 13.5213 13.0428 17.2312 8.5059 17.2344C6.38044 17.2359 4.44274 16.4321 2.9811 15.1113C2.81186 14.9584 2.80512 14.6948 2.96639 14.5336L3.52952 13.9704C3.67989 13.8201 3.92052 13.8158 4.07919 13.9573C5.25299 15.0046 6.80158 15.6406 8.49999 15.6406C12.1706 15.6406 15.1406 12.67 15.1406 9C15.1406 5.32943 12.17 2.35938 8.49999 2.35938C6.65655 2.35938 4.99016 3.1089 3.7877 4.31979L5.41768 5.92725C5.67138 6.17744 5.49421 6.60938 5.13791 6.60938H0.876953C0.656916 6.60938 0.478516 6.43098 0.478516 6.21094V2.00885C0.478516 1.6552 0.904943 1.47684 1.15672 1.72516L2.65408 3.20184C4.14593 1.69754 6.21396 0.765625 8.49999 0.765625C13.0425 0.765625 16.726 4.4439 16.7344 8.98446ZM11.1875 11.9785L11.6562 11.334C11.7856 11.1561 11.7463 10.9069 11.5683 10.7775L9.29687 9.12544V4.35156C9.29687 4.13153 9.11846 3.95313 8.89843 3.95313H8.10155C7.88152 3.95313 7.70312 4.13153 7.70312 4.35156V9.93706L10.6309 12.0664C10.8089 12.1958 11.0581 12.1564 11.1875 11.9785Z" fill="black"/>
</svg>
