<svg width="28" height="28" viewBox="0 0 7.408 7.408" xmlns="http://www.w3.org/2000/svg"><path style="fill:#fff;fill-opacity:1;stroke-width:.37552;stroke-linecap:round;stroke-linejoin:round;paint-order:markers fill stroke" d="M2.183 0a.31.31 0 0 0-.294.31V1.707a3.061 3.061 0 0 0-1.515 2.64 3.061 3.061 0 0 0 3.062 3.061 3.061 3.061 0 0 0 3.06-3.06 3.061 3.061 0 0 0-.147-.94l.592-.568a.31.31 0 0 0 .01-.438L5.775 1.178a.31.31 0 0 0-.438-.01l-.318.306V.31A.309.309 0 0 0 4.71 0H2.183z"/><path style="color:currentColor;fill:#4c2c92;fill-opacity:1;stroke-width:.950692;stroke-linecap:round;stroke-linejoin:round;-inkscape-stroke:none" d="M2.8.7c-.124 0-.224.1-.224.223v.306c0 .124.1.224.224.224h.28v.48a2.447 2.447 0 0 0-2.064 2.41 2.446 2.446 0 0 0 2.44 2.44 2.446 2.446 0 0 0 2.44-2.44c0-.462-.13-.895-.355-1.264l.474-.441a.127.127 0 0 0 .006-.18l-.339-.365a.127.127 0 0 0-.18-.006l-.447.416a2.432 2.432 0 0 0-1.222-.57v-.48h.28c.124 0 .224-.1.224-.224V.923C4.337.8 4.237.7 4.113.7zm.656 1.957c.936 0 1.688.75 1.688 1.686 0 .936-.752 1.688-1.688 1.688a1.683 1.683 0 0 1-1.688-1.688c0-.936.752-1.686 1.688-1.686zm-.152.387c-.124 0-.224.1-.224.224v1.314c0 .124.1.223.224.223h.306c.123 0 .223-.1.223-.223V3.268c0-.124-.1-.224-.223-.224z"/></svg>