<svg xmlns="http://www.w3.org/2000/svg" fill="none" viewBox="0 0 24 24">
  <circle cx="12.024" cy="12.07" r="10.632" stroke="currentColor" stroke-width="1.737"/>
  <path fill="currentColor" d="M13.791 14.096q-.14.446-.152 1.383h-3.164q.07-1.98.375-2.73.304-.762 1.57-1.746l.855-.668q.422-.317.68-.692.469-.644.469-1.418 0-.89-.528-1.617-.515-.738-1.898-.738-1.36 0-1.934.902-.562.902-.562 1.875H6.115q.14-3.34 2.332-4.734 1.383-.89 3.399-.89 2.648 0 4.394 1.265 1.758 1.265 1.758 3.75 0 1.523-.762 2.566-.445.633-1.71 1.617l-.833.645q-.68.527-.902 1.23zm.094 6.375h-3.492v-3.386h3.492z" aria-label="?" font-family="Helvetica" font-size="24" font-weight="700" style="-inkscape-font-specification:&quot;Helvetica Bold&quot;" transform="translate(1.66 1.972) scale(.85964)"/>
</svg>