<svg width="24" height="24" viewBox="0 0 24 24" fill="none" xmlns="http://www.w3.org/2000/svg">
<path fill-rule="evenodd" clip-rule="evenodd" d="M13.7439 5H20.5C21.3284 5 22 5.67157 22 6.5C22 7.32843 21.3284 8 20.5 8H13.7439C13.1262 9.74779 11.4593 11 9.5 11C7.54067 11 5.87381 9.74779 5.25606 8H3.5C2.67157 8 2 7.32843 2 6.5C2 5.67157 2.67157 5 3.5 5H5.25606C5.87381 3.25221 7.54067 2 9.5 2C11.4593 2 13.1262 3.25221 13.7439 5ZM7 6.5C7 7.88071 8.11929 9 9.5 9C10.8807 9 12 7.88071 12 6.5C12 5.11929 10.8807 4 9.5 4C8.11929 4 7 5.11929 7 6.5Z" fill="currentColor"/>
<path fill-rule="evenodd" clip-rule="evenodd" d="M18.7439 16H20.5C21.3284 16 22 16.6716 22 17.5C22 18.3284 21.3284 19 20.5 19H18.7439C18.1262 20.7478 16.4593 22 14.5 22C12.5407 22 10.8738 20.7478 10.2561 19H3.5C2.67157 19 2 18.3284 2 17.5C2 16.6716 2.67157 16 3.5 16H10.2561C10.8738 14.2522 12.5407 13 14.5 13C16.4593 13 18.1262 14.2522 18.7439 16ZM12 17.5C12 18.8807 13.1193 20 14.5 20C15.8807 20 17 18.8807 17 17.5C17 16.1193 15.8807 15 14.5 15C13.1193 15 12 16.1193 12 17.5Z" fill="currentColor"/>
</svg>
