<svg viewBox="0 0 24 24" fill="none" xmlns="http://www.w3.org/2000/svg">
<path d="M19.7141 8.625L20.7734 7.56562C20.9937 7.34531 20.9937 6.98906 20.7734 6.76875L19.9766 5.97188C19.7563 5.75156 19.4 5.75156 19.1797 5.97188L18.2094 6.94219C16.7516 5.65313 14.9094 4.79063 12.875 4.56094V2.25H14.1875C14.4969 2.25 14.75 1.99688 14.75 1.6875V0.5625C14.75 0.253125 14.4969 0 14.1875 0H9.3125C9.00313 0 8.75 0.253125 8.75 0.5625V1.6875C8.75 1.99688 9.00313 2.25 9.3125 2.25H10.625V4.56563C5.76875 5.12344 2 9.24375 2 14.25C2 19.6359 6.36406 24 11.75 24C17.1359 24 21.5 19.6359 21.5 14.25C21.5 12.1547 20.8391 10.2141 19.7141 8.625ZM11.75 21.75C7.60625 21.75 4.25 18.3937 4.25 14.25C4.25 10.1062 7.60625 6.75 11.75 6.75C15.8938 6.75 19.25 10.1062 19.25 14.25C19.25 18.3937 15.8938 21.75 11.75 21.75ZM12.3125 16.5H11.1875C10.8781 16.5 10.625 16.2469 10.625 15.9375V9.5625C10.625 9.25313 10.8781 9 11.1875 9H12.3125C12.6219 9 12.875 9.25313 12.875 9.5625V15.9375C12.875 16.2469 12.6219 16.5 12.3125 16.5Z" fill="currentColor"/>
</svg>