<svg width="24" height="24" viewBox="0 0 6.35 6.35" xmlns="http://www.w3.org/2000/svg"><path style="color:currentColor;fill:#b1b4b6;fill-opacity:1;stroke-width:.992449;stroke-linecap:round;stroke-linejoin:round;-inkscape-stroke:none" d="M2.389 0a.233.233 0 0 0-.234.233v.32c0 .129.105.232.234.232h.293v.502A2.555 2.555 0 0 0 .527 3.803 2.553 2.553 0 0 0 3.074 6.35 2.553 2.553 0 0 0 5.62 3.803c0-.482-.136-.934-.371-1.32l.495-.46a.132.132 0 0 0 .007-.188l-.354-.38a.133.133 0 0 0-.188-.008l-.468.435a2.539 2.539 0 0 0-1.275-.595V.785h.293c.13 0 .233-.103.233-.233V.233A.232.232 0 0 0 3.76 0Z"/><path style="fill:#fff;stroke-width:.424218;stroke-linecap:round;stroke-linejoin:round;paint-order:markers fill stroke" d="M2.908 2.447h.33c.125 0 .225.1.225.225v1.39c0 .125-.1.226-.225.226h-.33a.224.224 0 0 1-.225-.225V2.672c0-.125.1-.225.225-.225z"/></svg>