<svg width="24" height="24" viewBox="0 0 6.35 6.35" xmlns="http://www.w3.org/2000/svg"><path style="color:#000;fill:#fff;stroke-width:.785672;stroke-linecap:round;stroke-linejoin:round;-inkscape-stroke:none" d="M5.302 3.803A2.154 2.154 0 0 1 3.15 5.957 2.154 2.154 0 0 1 .995 3.803 2.154 2.154 0 0 1 3.149 1.65a2.154 2.154 0 0 1 2.153 2.154Z"/><path style="color:currentColor;fill:#e5c700;stroke-width:3.75082;stroke-linecap:round;stroke-linejoin:round;-inkscape-stroke:none;fill-opacity:1" d="M9.309 0a.88.88 0 0 0-.883.88v1.208c0 .488.394.88.883.88h1.107v1.895c-4.6.718-8.143 4.716-8.143 9.51C2.273 19.672 6.6 24 11.898 24c5.299 0 9.627-4.328 9.627-9.627a9.55 9.55 0 0 0-1.402-4.988l1.871-1.74a.5.5 0 0 0 .026-.71l-1.338-1.439a.502.502 0 0 0-.711-.025l-1.766 1.642a9.596 9.596 0 0 0-4.82-2.248V2.97h1.107c.488 0 .881-.393.881-.881V.88a.879.879 0 0 0-.88-.881Zm2.59 7.72a6.634 6.634 0 0 1 6.66 6.653 6.64 6.64 0 0 1-6.66 6.66 6.639 6.639 0 0 1-6.659-6.66 6.632 6.632 0 0 1 6.658-6.652zm-.602 1.528a.88.88 0 0 0-.881.883v5.183c0 .489.393.881.88.881h1.208c.488 0 .88-.392.88-.88V10.13a.88.88 0 0 0-.88-.883z" transform="scale(.26458)"/></svg>